<svg width="18" height="20" viewBox="0 0 18 20" fill="none" xmlns="http://www.w3.org/2000/svg">
<path d="M11.9886 11.2171C13.6246 10.1495 14.7212 8.24015 14.7212 6.05998C14.7212 2.71851 12.1545 0 9 0C5.84551 0 3.2788 2.71851 3.2788 6.05998C3.2788 8.24015 4.37536 10.1495 6.01135 11.2171C2.47881 12.0564 0 14.3491 0 17.1236C0 19.3941 5.65752 20 9 20C12.3425 20 18 19.3941 18 17.1236C18 14.3491 15.5212 12.0564 11.9886 11.2171ZM4.45741 6.05998C4.45741 3.4078 6.49544 1.25 9 1.25C11.5046 1.25 13.5426 3.4078 13.5426 6.05998C13.5426 8.71216 11.5046 10.8695 9 10.8695C6.49544 10.8695 4.45741 8.71216 4.45741 6.05998ZM9 18.75C4.19518 18.75 1.31904 17.675 1.17895 17.1194C1.1826 14.3621 4.68987 12.1195 9 12.1195C13.3097 12.1195 16.8167 14.3617 16.821 17.1186C16.6844 17.6738 13.808 18.75 9 18.75Z" fill="white"/>
</svg>
