<svg width="112" height="112" viewBox="0 0 112 112" fill="none" xmlns="http://www.w3.org/2000/svg">
<path d="M56 19.9062C36.0979 19.9062 19.9062 36.0979 19.9062 56C19.9062 75.9021 36.0979 92.0938 56 92.0938C75.9021 92.0938 92.0938 75.9021 92.0938 56C92.0938 36.0979 75.9021 19.9062 56 19.9062Z" fill="url(#paint0_linear)"/>
<path d="M48.3436 52.1348C48.2467 51.5249 48.1982 50.9149 48.1982 50.305C48.1982 48.5072 48.489 46.9663 49.0705 45.6822C49.6843 44.366 50.4919 43.2905 51.4934 42.4559C52.5272 41.6212 53.7225 41.0112 55.0793 40.626C56.4361 40.2087 57.8737 40 59.3921 40C61.5888 40 63.2526 40.3692 64.3833 41.1075C65.5463 41.8459 66.1277 42.9374 66.1277 44.382C66.1277 45.0241 65.9824 45.6501 65.6916 46.26C65.4009 46.8379 65.0778 47.2552 64.7225 47.512C64.1733 47.2231 63.5918 46.9984 62.978 46.8379C62.3642 46.6453 61.6211 46.549 60.7489 46.549C59.3598 46.549 58.2614 46.8539 57.4537 47.4639C56.6784 48.0738 56.2907 49.1172 56.2907 50.5939C56.2907 50.8507 56.2907 51.1075 56.2907 51.3644C56.2907 51.6212 56.3231 51.878 56.3877 52.1348H62.7357C62.8972 52.488 63.0749 52.9374 63.2687 53.4831C63.4626 53.9968 63.5595 54.5586 63.5595 55.1685C63.5595 56.3884 63.301 57.2392 62.7841 57.7207C62.2996 58.2022 61.6373 58.443 60.7974 58.443H56.9207V59.069C56.9207 60.8347 56.4361 62.3596 55.467 63.6437H66.1762C66.37 63.9968 66.5477 64.4462 66.7092 64.992C66.9031 65.5377 67 66.1316 67 66.7737C67 67.9294 66.7416 68.764 66.2247 69.2777C65.7078 69.7592 65.0294 70 64.1894 70H48.1498C47.3098 70 46.5668 69.679 45.9207 69.0369C45.3069 68.3628 45 67.4157 45 66.1958C45 66.0353 45 65.923 45 65.8587C45 65.7624 45.0162 65.634 45.0485 65.4735C46.3407 64.8957 47.3098 64.1252 47.9559 63.1621C48.6021 62.199 48.9251 60.8026 48.9251 58.9727V58.443H47.9075C47.0676 58.443 46.3891 58.2022 45.8722 57.7207C45.3877 57.2392 45.1454 56.3884 45.1454 55.1685C45.1454 54.5586 45.2423 53.9968 45.4361 53.4831C45.63 52.9374 45.8076 52.488 45.9692 52.1348H48.3436Z" fill="#FFE9A3"/>
<path fill-rule="evenodd" clip-rule="evenodd" d="M105.281 37.207C107.008 36.6592 108.853 37.6156 109.401 39.3431C111.125 44.7829 112 50.4606 112 56.2188C112 71.1185 106.198 85.1263 95.6622 95.662C85.1263 106.198 71.1185 112 56.2188 112C43.5004 112 31.4322 107.744 21.6969 100.051L22.2084 101.585C22.7813 103.304 21.8523 105.163 20.1331 105.736C19.789 105.851 19.439 105.905 19.0951 105.905C17.7209 105.905 16.441 105.035 15.9825 103.66L11.3422 89.7391C10.9491 88.5601 11.256 87.26 12.1349 86.3813C13.0137 85.5024 14.3137 85.195 15.4927 85.5886L29.414 90.2289C31.1332 90.802 32.0622 92.6603 31.4893 94.3795C30.996 95.8589 29.5512 96.7505 28.0623 96.6059C36.2193 102.31 45.9802 105.438 56.2188 105.438C83.358 105.438 105.438 83.358 105.438 56.2188C105.438 51.1343 104.666 46.1241 103.145 41.3265C102.597 39.599 103.554 37.7545 105.281 37.207ZM55.7812 6.5625C28.642 6.5625 6.5625 28.642 6.5625 55.7812C6.5625 60.8657 7.33359 65.8759 8.855 70.6733C9.40275 72.4008 8.44616 74.2453 6.71869 74.7928C6.38881 74.8974 6.05478 74.9473 5.72622 74.9473C4.33409 74.9473 3.04237 74.0545 2.59919 72.6569C0.874562 67.2171 0 61.5394 0 55.7812C0 40.8815 5.80235 26.8737 16.338 16.338C26.8737 5.80235 40.8815 0 55.7812 0C68.4996 0 80.5678 4.25556 90.3028 11.9497L89.7914 10.4151C89.2185 8.69597 90.1475 6.83769 91.8667 6.26456C93.5856 5.69144 95.4441 6.62047 96.0173 8.33984L100.658 22.2611C101.051 23.4402 100.744 24.7402 99.8648 25.6189C99.2397 26.2443 98.401 26.5801 97.5443 26.5801C97.1972 26.5801 96.8472 26.525 96.5072 26.4114L82.586 21.7711C80.8668 21.198 79.9378 19.3397 80.5107 17.6205C81.004 16.1413 82.4488 15.2495 83.9377 15.3941C75.7807 9.68997 66.0198 6.5625 55.7812 6.5625Z" fill="url(#paint1_linear)"/>
<defs>
<linearGradient id="paint0_linear" x1="56" y1="92.0938" x2="56" y2="19.9062" gradientUnits="userSpaceOnUse">
<stop stop-color="#FD5900"/>
<stop offset="1" stop-color="#FFDE00"/>
</linearGradient>
<linearGradient id="paint1_linear" x1="56" y1="112" x2="56" y2="0" gradientUnits="userSpaceOnUse">
<stop stop-color="#FFE59A"/>
<stop offset="1" stop-color="#FFFFD5"/>
</linearGradient>
</defs>
</svg>
