<svg width="112" height="112" viewBox="0 0 112 112" fill="none" xmlns="http://www.w3.org/2000/svg">
<path d="M95.375 112H16.625C14.8129 112 13.3438 110.531 13.3438 108.719V16.4062C13.3438 14.5941 14.8129 13.125 16.625 13.125H36.3125C38.1246 13.125 39.5938 14.5941 39.5938 16.4062V19.6875H72.4062V16.4062C72.4062 14.5941 73.8754 13.125 75.6875 13.125H95.375C97.1871 13.125 98.6562 14.5941 98.6562 16.4062V108.719C98.6562 110.531 97.1871 112 95.375 112Z" fill="url(#paint0_linear)"/>
<path d="M36.3125 26.25H75.6875C77.4996 26.25 78.9688 24.7809 78.9688 22.9688V16.4062C78.9688 10.9784 74.5528 6.5625 69.125 6.5625H65.2816C63.9273 2.74291 60.2781 0 56 0C51.7219 0 48.0727 2.74291 46.7184 6.5625H42.875C37.4472 6.5625 33.0312 10.9784 33.0312 16.4062V22.9688C33.0312 24.7809 34.5004 26.25 36.3125 26.25ZM71.4451 60.4612C70.1638 59.1798 68.0862 59.1798 66.8047 60.4612L52.7188 74.5471L45.1951 67.0237C43.9138 65.7423 41.8362 65.7423 40.5547 67.0237C39.2733 68.3051 39.2733 70.3826 40.5547 71.664L50.3985 81.5078C51.0392 82.1485 51.879 82.4688 52.7188 82.4688C53.5585 82.4688 54.3983 82.1485 55.0388 81.5076L71.4451 65.1013C72.7267 63.8201 72.7267 61.7424 71.4451 60.4612ZM56 39.8125C39.7165 39.8125 26.4688 53.0602 26.4688 69.3438C26.4688 85.6273 39.7165 98.875 56 98.875C72.2835 98.875 85.5312 85.6273 85.5312 69.3438C85.5312 53.0602 72.2835 39.8125 56 39.8125ZM56 92.3125C43.335 92.3125 33.0312 82.0087 33.0312 69.3438C33.0312 56.6788 43.335 46.375 56 46.375C68.665 46.375 78.9688 56.6788 78.9688 69.3438C78.9688 82.0087 68.665 92.3125 56 92.3125Z" fill="url(#paint1_linear)"/>
<defs>
<linearGradient id="paint0_linear" x1="56" y1="112" x2="56" y2="13.125" gradientUnits="userSpaceOnUse">
<stop stop-color="#FD3A84"/>
<stop offset="1" stop-color="#FFA68D"/>
</linearGradient>
<linearGradient id="paint1_linear" x1="56" y1="98.875" x2="56" y2="0" gradientUnits="userSpaceOnUse">
<stop stop-color="#FFC2CC"/>
<stop offset="1" stop-color="#FFF2F4"/>
</linearGradient>
</defs>
</svg>
