<svg width="896" height="176" viewBox="0 0 896 176" fill="none" xmlns="http://www.w3.org/2000/svg">
<g clip-path="url(#clip0)">
<rect width="896" height="176" rx="16" fill="url(#paint0_linear)"/>
<path d="M53.338 86.1428V53.7968H40.756V47.8028H72.832V53.7968H60.25V86.1428H53.338ZM73.045 86.1428V58.6028H79.633V63.4628L79.525 65.3528H79.633C80.281 63.3368 81.397 61.6448 82.981 60.2768C84.565 58.9088 86.365 58.2248 88.381 58.2248C88.669 58.2248 89.101 58.2608 89.677 58.3328V65.0828C89.317 65.0108 88.759 64.9748 88.003 64.9748C85.339 64.9748 83.323 65.9468 81.955 67.8908C80.587 69.8348 79.903 72.2108 79.903 75.0188V86.1428H73.045ZM92.0328 78.5288C92.0328 76.5848 92.5548 74.9288 93.5988 73.5608C94.6788 72.1928 96.0828 71.2028 97.8108 70.5908C99.5748 69.9428 101.267 69.4928 102.887 69.2408C104.543 68.9888 106.271 68.8628 108.071 68.8628H109.259V68.4848C109.259 65.2448 107.531 63.6248 104.075 63.6248C101.555 63.6248 98.9988 64.5068 96.4068 66.2708L93.8688 61.3568C95.0568 60.4208 96.6588 59.6288 98.6748 58.9808C100.691 58.2968 102.689 57.9548 104.669 57.9548C108.269 57.9548 111.077 58.9268 113.093 60.8708C115.109 62.7788 116.117 65.4608 116.117 68.9168V86.1428H109.745V83.8208L109.907 81.8228H109.799C108.935 83.2988 107.729 84.5048 106.181 85.4408C104.633 86.3408 102.941 86.7908 101.105 86.7908C98.5488 86.7908 96.3888 86.0348 94.6248 84.5228C92.8968 82.9748 92.0328 80.9768 92.0328 78.5288ZM98.8368 77.9348C98.8368 78.9068 99.1968 79.7528 99.9168 80.4728C100.673 81.1928 101.699 81.5528 102.995 81.5528C104.831 81.5528 106.343 80.7968 107.531 79.2848C108.719 77.7728 109.313 76.1168 109.313 74.3168V73.5608H108.125C101.933 73.5608 98.8368 75.0188 98.8368 77.9348ZM121.577 72.3728C121.577 68.0528 122.729 64.5788 125.033 61.9508C127.373 59.2868 130.379 57.9548 134.051 57.9548C137.687 57.9548 140.369 59.1608 142.097 61.5728H142.205C142.133 61.1048 142.097 60.5648 142.097 59.9528V47.8028H148.901V86.1428H142.475V83.7668L142.583 82.0388H142.475C141.647 83.4788 140.459 84.6308 138.911 85.4948C137.399 86.3588 135.689 86.7908 133.781 86.7908C130.109 86.7908 127.157 85.4588 124.925 82.7948C122.693 80.1308 121.577 76.6568 121.577 72.3728ZM128.489 72.3728C128.489 74.9648 129.119 77.0528 130.379 78.6368C131.639 80.2208 133.295 81.0128 135.347 81.0128C137.291 81.0128 138.929 80.2928 140.261 78.8528C141.593 77.3768 142.259 75.1988 142.259 72.3188C142.259 70.0148 141.665 68.0348 140.477 66.3788C139.289 64.6868 137.597 63.8408 135.401 63.8408C133.457 63.8408 131.819 64.6148 130.487 66.1628C129.155 67.6748 128.489 69.7448 128.489 72.3728ZM154.639 72.3728C154.639 68.1248 155.935 64.6688 158.527 62.0048C161.155 59.3048 164.539 57.9548 168.679 57.9548C172.495 57.9548 175.483 59.1968 177.643 61.6808C179.803 64.1288 180.883 67.2428 180.883 71.0228C180.883 71.6348 180.811 72.5168 180.667 73.6688H161.713C161.929 75.9728 162.811 77.7728 164.359 79.0688C165.907 80.3288 167.779 80.9588 169.975 80.9588C172.711 80.9588 175.339 79.9508 177.859 77.9348L180.559 82.8488C179.191 84.0728 177.499 85.0448 175.483 85.7648C173.503 86.4488 171.505 86.7908 169.489 86.7908C165.061 86.7908 161.479 85.4048 158.743 82.6328C156.007 79.8248 154.639 76.4048 154.639 72.3728ZM161.875 68.9708H174.025C173.989 67.1708 173.449 65.7488 172.405 64.7048C171.397 63.6608 170.101 63.1388 168.517 63.1388C166.789 63.1388 165.331 63.6788 164.143 64.7588C162.955 65.8028 162.199 67.2068 161.875 68.9708ZM187.132 86.1428V47.8028H194.098V64.0568H211.648V47.8028H218.56V86.1428H211.648V70.0508H194.098V86.1428H187.132ZM224.67 72.3728C224.67 68.1248 225.966 64.6688 228.558 62.0048C231.186 59.3048 234.57 57.9548 238.71 57.9548C242.526 57.9548 245.514 59.1968 247.674 61.6808C249.834 64.1288 250.914 67.2428 250.914 71.0228C250.914 71.6348 250.842 72.5168 250.698 73.6688H231.744C231.96 75.9728 232.842 77.7728 234.39 79.0688C235.938 80.3288 237.81 80.9588 240.006 80.9588C242.742 80.9588 245.37 79.9508 247.89 77.9348L250.59 82.8488C249.222 84.0728 247.53 85.0448 245.514 85.7648C243.534 86.4488 241.536 86.7908 239.52 86.7908C235.092 86.7908 231.51 85.4048 228.774 82.6328C226.038 79.8248 224.67 76.4048 224.67 72.3728ZM231.906 68.9708H244.056C244.02 67.1708 243.48 65.7488 242.436 64.7048C241.428 63.6608 240.132 63.1388 238.548 63.1388C236.82 63.1388 235.362 63.6788 234.174 64.7588C232.986 65.8028 232.23 67.2068 231.906 68.9708ZM256.613 77.5568V47.8028H263.417V76.5308C263.417 77.9708 263.633 78.9608 264.065 79.5008C264.533 80.0408 265.253 80.3108 266.225 80.3108C266.657 80.3108 266.999 80.2928 267.251 80.2568V86.2508C266.279 86.3588 265.559 86.4128 265.091 86.4128C263.975 86.4128 262.985 86.3228 262.121 86.1428C261.257 85.9268 260.375 85.5488 259.475 85.0088C258.575 84.4328 257.873 83.5148 257.369 82.2548C256.865 80.9948 256.613 79.4288 256.613 77.5568ZM272.223 96.9428V58.6028H278.487V60.6548L278.379 62.5988H278.487C279.387 61.1228 280.611 59.9888 282.159 59.1968C283.743 58.3688 285.471 57.9548 287.343 57.9548C291.051 57.9548 294.003 59.2868 296.199 61.9508C298.431 64.6148 299.547 68.0888 299.547 72.3728C299.547 76.6928 298.359 80.1848 295.983 82.8488C293.643 85.4768 290.637 86.7908 286.965 86.7908C283.689 86.7908 281.043 85.4948 279.027 82.9028H278.919C279.027 83.5508 279.081 84.3428 279.081 85.2788V96.9428H272.223ZM278.865 72.5348C278.865 74.8388 279.477 76.8368 280.701 78.5288C281.925 80.1848 283.599 81.0128 285.723 81.0128C287.703 81.0128 289.341 80.2568 290.637 78.7448C291.969 77.1968 292.635 75.1088 292.635 72.4808C292.635 69.8888 292.005 67.8008 290.745 66.2168C289.485 64.6328 287.847 63.8408 285.831 63.8408C283.851 63.8408 282.195 64.5788 280.863 66.0548C279.531 67.4948 278.865 69.6548 278.865 72.5348ZM42.2 114.903C42.2 110.796 43.52 107.383 46.16 104.663C48.8267 101.916 52.2133 100.543 56.32 100.543C60.56 100.543 63.9467 101.756 66.48 104.183L65 106.223C63.9067 105.263 62.5867 104.516 61.04 103.983C59.4933 103.423 57.9467 103.143 56.4 103.143C53.04 103.143 50.3067 104.263 48.2 106.503C46.12 108.716 45.08 111.503 45.08 114.863C45.08 118.276 46.1333 121.156 48.24 123.503C50.3467 125.849 53.1067 127.023 56.52 127.023C60.04 127.023 63.0667 125.783 65.6 123.303L67.2 125.263C64.24 128.169 60.6533 129.623 56.44 129.623C52.2267 129.623 48.8 128.223 46.16 125.423C43.52 122.596 42.2 119.089 42.2 114.903ZM71.4375 121.823V109.023H74.1975V121.103C74.1975 122.996 74.4775 124.463 75.0375 125.503C75.6242 126.543 76.7975 127.063 78.5575 127.063C80.7708 127.063 82.5575 126.236 83.9175 124.583C85.3042 122.929 85.9975 120.956 85.9975 118.663V109.023H88.7175V129.143H86.0375V125.983L86.1975 124.383H86.1175C85.6375 125.636 84.6908 126.823 83.2775 127.943C81.8908 129.063 80.1975 129.623 78.1975 129.623C75.8508 129.623 74.1308 128.983 73.0375 127.703C71.9708 126.423 71.4375 124.463 71.4375 121.823ZM93.4331 126.703L94.8731 124.783C96.4465 126.409 98.4731 127.223 100.953 127.223C102.126 127.223 103.086 126.943 103.833 126.383C104.606 125.796 104.993 124.996 104.993 123.983C104.993 123.156 104.62 122.463 103.873 121.903C103.153 121.316 102.26 120.836 101.193 120.463C100.153 120.063 99.0998 119.636 98.0331 119.183C96.9931 118.729 96.0998 118.089 95.3531 117.263C94.6331 116.409 94.2731 115.369 94.2731 114.143C94.2731 112.383 94.9265 111.009 96.2331 110.023C97.5398 109.036 99.1665 108.543 101.113 108.543C103.7 108.543 105.766 109.276 107.313 110.743L106.033 112.783C105.473 112.223 104.726 111.783 103.793 111.463C102.86 111.116 101.926 110.943 100.993 110.943C99.8465 110.943 98.8865 111.209 98.1131 111.743C97.3398 112.249 96.9531 113.023 96.9531 114.063C96.9531 114.889 97.3131 115.596 98.0331 116.183C98.7798 116.769 99.6865 117.263 100.753 117.663C101.82 118.036 102.873 118.449 103.913 118.903C104.98 119.356 105.873 120.009 106.593 120.863C107.34 121.689 107.713 122.716 107.713 123.943C107.713 125.596 107.073 126.956 105.793 128.023C104.513 129.089 102.886 129.623 100.913 129.623C97.7931 129.623 95.2998 128.649 93.4331 126.703ZM113.452 121.823V111.463H110.812V109.183H113.492V103.463H116.172V109.183H121.252V111.463H116.172V121.543C116.172 122.636 116.332 123.569 116.652 124.343C116.972 125.089 117.386 125.636 117.892 125.983C118.399 126.303 118.879 126.529 119.332 126.663C119.786 126.796 120.252 126.863 120.732 126.863C121.106 126.863 121.412 126.836 121.652 126.783V129.223C121.332 129.276 120.946 129.303 120.492 129.303C119.932 129.303 119.386 129.263 118.852 129.183C118.319 129.103 117.706 128.916 117.012 128.623C116.346 128.303 115.759 127.889 115.252 127.383C114.746 126.876 114.319 126.143 113.972 125.183C113.626 124.223 113.452 123.103 113.452 121.823ZM124.146 118.983C124.146 116.023 125.172 113.543 127.226 111.543C129.279 109.543 131.786 108.543 134.746 108.543C137.706 108.543 140.212 109.543 142.266 111.543C144.346 113.543 145.386 116.023 145.386 118.983C145.386 121.996 144.346 124.529 142.266 126.583C140.212 128.609 137.706 129.623 134.746 129.623C131.786 129.623 129.279 128.609 127.226 126.583C125.172 124.529 124.146 121.996 124.146 118.983ZM126.946 118.983C126.946 121.329 127.692 123.276 129.186 124.823C130.706 126.369 132.559 127.143 134.746 127.143C136.932 127.143 138.786 126.369 140.306 124.823C141.826 123.276 142.586 121.329 142.586 118.983C142.586 116.716 141.826 114.823 140.306 113.303C138.786 111.756 136.932 110.983 134.746 110.983C132.559 110.983 130.706 111.756 129.186 113.303C127.692 114.823 126.946 116.716 126.946 118.983ZM150.467 129.143V109.023H153.147V112.183L152.987 113.783H153.067C153.573 112.396 154.547 111.183 155.987 110.143C157.427 109.076 158.92 108.543 160.467 108.543C164.013 108.543 166.08 110.223 166.667 113.583H166.747C167.333 112.223 168.307 111.049 169.667 110.063C171.053 109.049 172.547 108.543 174.147 108.543C176.52 108.543 178.227 109.196 179.267 110.503C180.307 111.809 180.827 113.756 180.827 116.343V129.143H178.107V117.023C178.107 115.129 177.8 113.663 177.187 112.623C176.6 111.583 175.467 111.063 173.787 111.063C171.84 111.063 170.227 111.916 168.947 113.623C167.667 115.303 167.027 117.236 167.027 119.423V129.143H164.307V117.023C164.307 115.156 164.027 113.703 163.467 112.663C162.907 111.596 161.773 111.063 160.067 111.063C158.093 111.063 156.453 111.929 155.147 113.663C153.84 115.369 153.187 117.289 153.187 119.423V129.143H150.467ZM185.747 119.103C185.747 115.903 186.694 113.343 188.587 111.423C190.507 109.503 192.881 108.543 195.707 108.543C198.374 108.543 200.441 109.436 201.907 111.223C203.374 112.983 204.107 115.183 204.107 117.823C204.107 118.143 204.081 118.596 204.027 119.183H188.587C188.641 121.663 189.414 123.609 190.907 125.023C192.401 126.436 194.227 127.143 196.387 127.143C198.707 127.143 200.747 126.343 202.507 124.743L203.747 126.823C202.814 127.676 201.667 128.356 200.307 128.863C198.974 129.369 197.641 129.623 196.307 129.623C193.294 129.623 190.774 128.636 188.747 126.663C186.747 124.689 185.747 122.169 185.747 119.103ZM188.707 117.023H201.347C201.267 115.023 200.694 113.489 199.627 112.423C198.561 111.329 197.227 110.783 195.627 110.783C193.894 110.783 192.387 111.329 191.107 112.423C189.827 113.516 189.027 115.049 188.707 117.023ZM209.217 129.143V109.023H211.897V112.743L211.737 114.343H211.817C212.35 112.743 213.177 111.423 214.297 110.383C215.443 109.343 216.763 108.823 218.257 108.823C218.657 108.823 219.017 108.863 219.337 108.943V111.623C219.177 111.569 218.843 111.543 218.337 111.543C216.923 111.543 215.71 112.036 214.697 113.023C213.683 114.009 212.963 115.169 212.537 116.503C212.137 117.809 211.937 119.183 211.937 120.623V129.143H209.217ZM233.415 129.143V101.023H248.175V103.503H236.175V114.063H246.495V116.543H236.175V129.143H233.415ZM252.729 104.423V101.023H255.689V104.423H252.729ZM252.849 129.143V109.023H255.569V129.143H252.849ZM262.068 129.143V109.023H264.748V112.183L264.588 113.783H264.668C265.175 112.556 266.121 111.383 267.508 110.263C268.921 109.116 270.681 108.543 272.788 108.543C275.215 108.543 276.948 109.196 277.988 110.503C279.028 111.809 279.548 113.756 279.548 116.343V129.143H276.828V117.063C276.828 115.169 276.535 113.703 275.948 112.663C275.361 111.623 274.188 111.103 272.428 111.103C270.268 111.103 268.455 111.889 266.988 113.463C265.521 115.036 264.788 116.983 264.788 119.303V129.143H262.068ZM284.058 123.743C284.058 119.076 288.138 116.743 296.298 116.743H297.498V116.183C297.498 112.716 295.845 110.983 292.538 110.983C290.485 110.983 288.578 111.623 286.818 112.903L285.578 110.823C286.378 110.129 287.431 109.583 288.738 109.183C290.045 108.756 291.365 108.543 292.698 108.543C295.125 108.543 296.978 109.209 298.258 110.543C299.565 111.849 300.218 113.756 300.218 116.263V129.143H297.618V126.783L297.738 125.103H297.658C297.098 126.383 296.205 127.463 294.978 128.343C293.778 129.196 292.405 129.623 290.858 129.623C289.018 129.623 287.418 129.103 286.058 128.063C284.725 127.023 284.058 125.583 284.058 123.743ZM286.818 123.503C286.818 124.516 287.218 125.409 288.018 126.183C288.818 126.956 289.925 127.343 291.338 127.343C293.178 127.343 294.658 126.569 295.778 125.023C296.925 123.476 297.498 121.743 297.498 119.823V118.903H296.338C295.485 118.903 294.738 118.916 294.098 118.943C293.485 118.969 292.671 119.076 291.658 119.263C290.671 119.423 289.858 119.649 289.218 119.943C288.578 120.236 288.018 120.689 287.538 121.303C287.058 121.916 286.818 122.649 286.818 123.503ZM306.482 129.143V109.023H309.162V112.183L309.002 113.783H309.082C309.589 112.556 310.536 111.383 311.922 110.263C313.336 109.116 315.096 108.543 317.202 108.543C319.629 108.543 321.362 109.196 322.402 110.503C323.442 111.809 323.962 113.756 323.962 116.343V129.143H321.242V117.063C321.242 115.169 320.949 113.703 320.362 112.663C319.776 111.623 318.602 111.103 316.842 111.103C314.682 111.103 312.869 111.889 311.402 113.463C309.936 115.036 309.202 116.983 309.202 119.303V129.143H306.482ZM328.872 119.103C328.872 116.036 329.886 113.516 331.912 111.543C333.939 109.543 336.446 108.543 339.432 108.543C340.819 108.543 342.179 108.796 343.512 109.303C344.846 109.783 345.939 110.489 346.792 111.423L345.392 113.463C344.672 112.716 343.779 112.116 342.712 111.663C341.672 111.209 340.606 110.983 339.512 110.983C337.272 110.983 335.406 111.743 333.912 113.263C332.419 114.783 331.672 116.729 331.672 119.103C331.672 121.449 332.419 123.383 333.912 124.903C335.432 126.396 337.326 127.143 339.592 127.143C340.766 127.143 341.939 126.903 343.112 126.423C344.286 125.916 345.259 125.236 346.032 124.383L347.272 126.423C346.392 127.409 345.246 128.196 343.832 128.783C342.446 129.343 340.979 129.623 339.432 129.623C336.419 129.623 333.899 128.649 331.872 126.703C329.872 124.729 328.872 122.196 328.872 119.103ZM350.122 119.103C350.122 115.903 351.069 113.343 352.962 111.423C354.882 109.503 357.256 108.543 360.082 108.543C362.749 108.543 364.816 109.436 366.282 111.223C367.749 112.983 368.482 115.183 368.482 117.823C368.482 118.143 368.456 118.596 368.402 119.183H352.962C353.016 121.663 353.789 123.609 355.282 125.023C356.776 126.436 358.602 127.143 360.762 127.143C363.082 127.143 365.122 126.343 366.882 124.743L368.122 126.823C367.189 127.676 366.042 128.356 364.682 128.863C363.349 129.369 362.016 129.623 360.682 129.623C357.669 129.623 355.149 128.636 353.122 126.663C351.122 124.689 350.122 122.169 350.122 119.103ZM353.082 117.023H365.722C365.642 115.023 365.069 113.489 364.002 112.423C362.936 111.329 361.602 110.783 360.002 110.783C358.269 110.783 356.762 111.329 355.482 112.423C354.202 113.516 353.402 115.049 353.082 117.023Z" fill="white"/>
<path d="M601.174 214C595.174 214 587.834 212.802 580.775 208.501C576.893 206.175 567.435 199.407 563.835 187.351C561.929 181.006 562.494 175.649 562.706 173.393C564.612 153.3 580.21 135.746 587.339 129.472C587.339 129.472 411.561 129.069 382 129.008C379.271 129.002 376.125 128 373.5 126.5C370.875 125 369 126 368 127C367.229 127.14 365.501 126.5 366.5 125C367.5 124 370 122.5 372.5 124C375 125.5 381 127.518 382 127.509C383 127.5 588.751 127.991 588.751 127.991H589.245C589.528 127.991 589.81 128.203 589.88 128.485C589.951 128.767 589.88 129.049 589.669 129.26C583.669 133.984 566.164 152.313 564.117 173.463C563.906 175.649 563.412 180.795 565.247 186.858C568.705 198.49 577.811 204.976 581.552 207.232C595.174 215.41 609.573 211.956 613.667 210.757C622.208 208.149 627.078 203.496 640.065 189.819C650.512 178.821 660.887 167.471 671.051 156.12C666.816 157.178 662.511 157.812 658.135 157.883C654.535 157.953 650.864 157.671 647.335 156.966C639.712 164.157 632.372 171.63 625.525 179.033C624.678 179.949 623.902 180.865 623.125 181.641C616.49 188.902 613.173 192.568 606.891 193.978C606.397 194.119 594.115 196.798 586.916 188.902C583.528 185.166 581.975 179.667 582.54 173.463C582.963 168.599 584.728 165.144 602.374 144.982C608.232 138.355 611.62 134.618 616.49 130.106C623.196 123.902 627.713 121.294 631.454 119.672C630.395 119.743 629.478 119.884 628.631 120.025L627.995 120.095C615.361 121.787 592.845 135.394 580.634 152.243C573.858 161.549 571.105 170.925 572.658 179.244C574.705 190.171 584.94 197.644 591.08 202.086C595.104 204.976 597.292 206.598 596.304 208.149C596.021 208.642 595.457 208.924 594.68 208.995C591.363 209.418 582.893 206.527 576.47 200.746C567.506 192.709 565.953 181.923 565.67 177.693C565.035 167.4 571.246 158.306 582.469 141.739C601.95 113.186 614.232 105.643 622.702 102.259C625.384 101.202 627.925 100.426 630.536 99.8622C644.512 96.9717 656.935 99.4392 665.475 106.771C670.345 110.931 673.945 116.641 675.992 123.409C676.063 123.691 675.992 123.902 675.78 124.114C672.816 127.075 669.287 129.331 665.405 130.882C662.581 132.01 659.546 132.644 656.511 132.785C656.299 132.785 656.088 132.715 655.947 132.574C655.805 132.433 655.735 132.221 655.735 132.01C655.876 130.459 655.946 126.511 653.335 123.127C651.217 120.448 648.394 119.531 647.124 119.108C644.724 118.333 641.9 118.262 638.654 118.897C639.854 119.32 641.053 119.884 642.112 120.73C644.583 122.633 645.5 124.889 646.347 127.075C647.124 128.978 647.829 130.811 649.594 132.221C654.535 136.169 663.146 133.279 667.24 131.869C675.851 128.978 680.439 124.325 708.249 90.6973C712.272 85.8329 716.436 80.757 715.589 74.7646C714.884 69.8296 710.931 64.9652 705.778 62.6387C705.708 62.6387 701.332 60.7353 695.755 61.4403C678.674 63.6962 653.123 96.6897 652.064 98.0997C651.923 98.3112 651.641 98.4522 651.359 98.3817C646.7 97.3242 641.971 96.9012 637.171 96.9717C633.148 97.0422 629.125 97.6062 625.172 98.5227C624.89 98.5932 624.607 98.4522 624.396 98.2407C624.255 97.9587 624.255 97.6767 624.396 97.3947C628.278 92.3188 632.372 87.3839 636.607 82.5899C646.488 71.4511 655.029 63.7667 659.193 60.1713C672.675 48.6799 679.451 42.899 687.921 40.9956C692.72 39.9381 705.214 38.1756 717.354 45.296C728.577 51.9229 736.2 63.9077 736.694 75.963C737.188 86.2559 730.482 95.0683 717.072 112.622C713.19 117.698 709.307 122.351 705.567 126.511C706.202 127.075 707.261 127.427 708.602 127.639H895.294C895.718 127.639 896 127.921 896 128.344C896 128.767 895.718 129.049 895.294 129.049H708.955C708.884 129.049 708.743 129.049 708.672 129.049C708.602 129.049 708.602 129.049 708.531 129.049C706.908 128.767 705.637 128.273 704.72 127.568C694.414 138.637 684.603 146.18 675.286 149.987C669.428 152.384 664.558 153.582 659.546 153.794C644.935 154.428 636.254 148.929 631.525 144.206C627.501 140.188 624.678 135.182 623.125 129.331C623.055 129.119 623.125 128.837 623.266 128.696C625.454 126.37 629.266 123.268 634.63 121.717C636.254 121.223 637.948 120.941 639.642 120.8C638.301 120.095 636.889 119.743 635.477 119.602C634.983 119.743 634.419 119.954 633.924 120.095C629.901 121.505 625.172 123.832 617.337 131.023C612.538 135.464 609.15 139.13 603.362 145.757C585.998 165.567 584.304 168.951 583.881 173.393C583.316 179.174 584.798 184.32 587.904 187.704C594.539 195.036 606.044 192.498 606.538 192.357C612.397 191.017 615.643 187.492 622.066 180.442C622.843 179.596 623.619 178.751 624.466 177.834C631.454 170.291 638.865 162.747 646.559 155.486C646.7 155.345 646.982 155.274 647.194 155.274C650.794 155.979 654.464 156.261 658.064 156.191C663.075 156.12 668.087 155.345 672.887 153.864C673.169 153.794 673.522 153.864 673.663 154.146C673.804 154.428 673.804 154.781 673.592 154.992C662.934 166.977 651.923 178.892 640.983 190.453C627.854 204.342 622.843 209.065 614.02 211.744C611.902 212.802 607.173 214 601.174 214ZM641.477 100.356C638.018 100.356 634.419 100.708 630.748 101.484C628.207 101.977 625.737 102.753 623.125 103.81C614.796 107.124 602.797 114.526 583.528 142.796C571.599 160.28 566.376 168.387 566.941 177.834C567.223 181.923 568.705 192.216 577.246 199.9C583.246 205.329 591.363 208.219 594.327 207.796C594.751 207.726 594.892 207.655 594.962 207.585C595.033 206.95 592.28 204.976 590.092 203.355C583.81 198.772 573.293 191.158 571.105 179.597C569.482 170.925 572.305 161.196 579.293 151.538C591.716 134.407 614.726 120.589 627.572 118.826L628.207 118.756C630.042 118.474 632.583 118.121 635.195 118.403C639.853 117.064 644.018 116.852 647.335 117.91C648.676 118.333 651.853 119.32 654.252 122.351C656.864 125.594 657.146 129.331 657.076 131.446C659.687 131.234 662.299 130.6 664.769 129.683C668.369 128.344 671.545 126.229 674.298 123.55C672.322 117.275 668.934 111.918 664.346 108.04C658.487 102.964 650.582 100.356 641.477 100.356ZM624.537 129.683C626.09 135.112 628.701 139.835 632.442 143.572C636.96 148.083 645.288 153.371 659.405 152.736C664.275 152.525 669.004 151.397 674.651 149C683.756 145.193 693.497 137.791 703.661 126.793C703.661 126.793 703.661 126.793 703.661 126.722C701.967 123.55 705.567 119.672 710.578 114.314C716.789 107.617 725.33 98.4522 728.93 85.5509C730.13 81.2505 731.824 75.258 729.847 68.2787C727.024 58.2678 718.13 51.1474 710.719 47.9045C708.037 46.706 706.343 46.424 705.708 46.424C706.202 47.0585 707.613 48.257 708.955 49.3144C714.672 54.1084 725.33 62.9912 727.024 76.386C729.353 94.9273 713.119 110.86 702.39 121.364C694.838 128.767 676.627 146.673 661.381 146.673C658.77 146.673 656.299 146.18 653.9 144.982C645.712 140.893 642.395 130.529 641.124 122.281C639.007 122.281 636.889 122.633 634.913 123.197C630.113 124.748 626.654 127.498 624.537 129.683ZM642.889 123.691C644.23 131.305 647.406 140.258 654.605 143.854C669.993 151.467 692.862 128.978 701.473 120.518C711.99 110.155 727.941 94.5043 725.683 76.668C724.059 63.8372 713.684 55.1658 708.108 50.5129C705.002 47.9045 703.59 46.706 704.437 45.6485C704.861 45.0845 705.778 45.014 707.19 45.296C713.542 46.565 727.589 54.8134 731.259 67.9967C733.306 75.3286 731.541 81.7439 730.341 85.9739C726.6 99.2277 717.919 108.534 711.637 115.301C707.331 119.954 704.155 123.338 704.72 125.665C708.39 121.646 712.131 117.134 715.942 112.129C729.141 94.8568 735.776 86.1854 735.353 76.386C734.788 64.8242 727.518 53.2624 716.648 46.9175C704.931 40.0086 692.932 41.7005 688.274 42.758C680.157 44.591 673.451 50.3014 660.181 61.6518C656.017 65.2472 647.547 72.8611 637.736 83.9294C633.924 88.1594 630.254 92.6008 626.796 97.1127C630.184 96.4077 633.713 95.9847 637.171 95.9142C641.9 95.7732 646.629 96.2667 651.217 97.2537C654.252 93.3763 678.674 62.7092 695.544 60.4533C701.543 59.6778 706.131 61.6518 706.343 61.7223C711.99 64.1897 716.225 69.4771 717.001 74.9056C717.919 81.5325 713.542 86.8199 709.307 91.8958C681.004 126.158 676.698 130.388 667.663 133.49C663.287 134.971 654.252 138.002 648.676 133.631C646.629 132.01 645.783 129.895 645.006 127.921C644.441 126.37 643.877 124.96 642.889 123.691Z" fill="white"/>
</g>
<defs>
<linearGradient id="paint0_linear" x1="-1.8692e-05" y1="176" x2="97.4517" y2="-171.282" gradientUnits="userSpaceOnUse">
<stop stop-color="#F8B330"/>
<stop offset="1" stop-color="#FFD586"/>
</linearGradient>
<clipPath id="clip0">
<rect width="896" height="176" rx="16" fill="white"/>
</clipPath>
</defs>
</svg>
