<svg width="112" height="112" viewBox="0 0 112 112" fill="none" xmlns="http://www.w3.org/2000/svg">
<path d="M110.425 17.6531C108.653 14.8312 105.503 13.125 102.156 13.125H85.5312L82.4593 6.5625L78.9688 13.125H52.7188L49.5073 6.5625L46.1562 13.125H19.9062L16.7646 6.5625L13.3438 13.125H9.84375C4.39666 13.125 0 17.5219 0 22.9688V108.719C0 110.556 1.44353 112 3.28125 112H108.719C110.556 112 112 110.556 112 108.719V22.9688C112 21.0654 111.475 19.2281 110.425 17.6531Z" fill="url(#paint0_linear)"/>
<path d="M33.0312 22.9688V9.84375C33.0312 4.39687 28.6346 0 23.1875 0C17.7404 0 13.3438 4.39687 13.3438 9.84375V13.125H19.9062V9.84375C19.9062 8.00603 21.3498 6.5625 23.1875 6.5625C25.0252 6.5625 26.4688 8.00603 26.4688 9.84375V22.9688C26.4688 24.806 25.0252 26.25 23.1875 26.25C21.3498 26.25 19.9062 27.6935 19.9062 29.5312C19.9062 31.3685 21.3498 32.8125 23.1875 32.8125C28.6346 32.8125 33.0312 28.4154 33.0312 22.9688ZM52.7188 9.84375C52.7188 8.00603 54.1623 6.5625 56 6.5625C57.8377 6.5625 59.2812 8.00603 59.2812 9.84375V22.9688C59.2812 24.806 57.8377 26.25 56 26.25C54.1623 26.25 52.7188 27.6935 52.7188 29.5312C52.7188 31.3685 54.1623 32.8125 56 32.8125C61.4471 32.8125 65.8438 28.4154 65.8438 22.9688V9.84375C65.8438 4.39687 61.4471 0 56 0C50.5529 0 46.1562 4.39687 46.1562 9.84375V13.125H52.7188V9.84375ZM88.8125 0C83.3654 0 78.9688 4.39687 78.9688 9.84375V13.125H85.5312V9.84375C85.5312 8.00603 86.9748 6.5625 88.8125 6.5625C90.6502 6.5625 92.0938 8.00603 92.0938 9.84375V22.9688C92.0938 24.806 90.6502 26.25 88.8125 26.25C86.9748 26.25 85.5312 27.6935 85.5312 29.5312C85.5312 31.3685 86.9748 32.8125 88.8125 32.8125C94.2596 32.8125 98.6562 28.4154 98.6562 22.9688V9.84375C98.6562 4.39687 94.2596 0 88.8125 0ZM56 39.5938C39.7252 39.5938 26.4688 52.8498 26.4688 69.125C26.4688 85.3998 39.7252 98.6562 56 98.6562C72.2748 98.6562 85.5312 85.3998 85.5312 69.125C85.5312 52.8498 72.2748 39.5938 56 39.5938ZM59.2812 69.125C59.2812 69.9781 58.9531 70.8312 58.2967 71.4217L49.0438 80.7404C47.6193 82.0232 45.6724 81.8998 44.3842 80.7404C43.1373 79.4281 43.1373 77.394 44.3842 76.0812L52.7188 67.7467V56C52.7188 54.1623 54.1623 52.7188 56 52.7188C57.8377 52.7188 59.2812 54.1623 59.2812 56V69.125Z" fill="url(#paint1_linear)"/>
<defs>
<linearGradient id="paint0_linear" x1="56" y1="112" x2="56" y2="6.5625" gradientUnits="userSpaceOnUse">
<stop stop-color="#5558FF"/>
<stop offset="1" stop-color="#00C0FF"/>
</linearGradient>
<linearGradient id="paint1_linear" x1="56" y1="98.6562" x2="56" y2="0" gradientUnits="userSpaceOnUse">
<stop stop-color="#ADDCFF"/>
<stop offset="0.5028" stop-color="#EAF6FF"/>
<stop offset="1" stop-color="#EAF6FF"/>
</linearGradient>
</defs>
</svg>
