<svg width="896" height="176" viewBox="0 0 896 176" fill="none" xmlns="http://www.w3.org/2000/svg">
<g clip-path="url(#clip0)">
<rect width="896" height="176" rx="16" fill="url(#paint0_linear)"/>
<path d="M53.338 86.1428V53.7968H40.756V47.8028H72.832V53.7968H60.25V86.1428H53.338ZM73.045 86.1428V58.6028H79.633V63.4628L79.525 65.3528H79.633C80.281 63.3368 81.397 61.6448 82.981 60.2768C84.565 58.9088 86.365 58.2248 88.381 58.2248C88.669 58.2248 89.101 58.2608 89.677 58.3328V65.0828C89.317 65.0108 88.759 64.9748 88.003 64.9748C85.339 64.9748 83.323 65.9468 81.955 67.8908C80.587 69.8348 79.903 72.2108 79.903 75.0188V86.1428H73.045ZM92.0328 78.5288C92.0328 76.5848 92.5548 74.9288 93.5988 73.5608C94.6788 72.1928 96.0828 71.2028 97.8108 70.5908C99.5748 69.9428 101.267 69.4928 102.887 69.2408C104.543 68.9888 106.271 68.8628 108.071 68.8628H109.259V68.4848C109.259 65.2448 107.531 63.6248 104.075 63.6248C101.555 63.6248 98.9988 64.5068 96.4068 66.2708L93.8688 61.3568C95.0568 60.4208 96.6588 59.6288 98.6748 58.9808C100.691 58.2968 102.689 57.9548 104.669 57.9548C108.269 57.9548 111.077 58.9268 113.093 60.8708C115.109 62.7788 116.117 65.4608 116.117 68.9168V86.1428H109.745V83.8208L109.907 81.8228H109.799C108.935 83.2988 107.729 84.5048 106.181 85.4408C104.633 86.3408 102.941 86.7908 101.105 86.7908C98.5488 86.7908 96.3888 86.0348 94.6248 84.5228C92.8968 82.9748 92.0328 80.9768 92.0328 78.5288ZM98.8368 77.9348C98.8368 78.9068 99.1968 79.7528 99.9168 80.4728C100.673 81.1928 101.699 81.5528 102.995 81.5528C104.831 81.5528 106.343 80.7968 107.531 79.2848C108.719 77.7728 109.313 76.1168 109.313 74.3168V73.5608H108.125C101.933 73.5608 98.8368 75.0188 98.8368 77.9348ZM121.577 72.3728C121.577 68.0528 122.729 64.5788 125.033 61.9508C127.373 59.2868 130.379 57.9548 134.051 57.9548C137.687 57.9548 140.369 59.1608 142.097 61.5728H142.205C142.133 61.1048 142.097 60.5648 142.097 59.9528V47.8028H148.901V86.1428H142.475V83.7668L142.583 82.0388H142.475C141.647 83.4788 140.459 84.6308 138.911 85.4948C137.399 86.3588 135.689 86.7908 133.781 86.7908C130.109 86.7908 127.157 85.4588 124.925 82.7948C122.693 80.1308 121.577 76.6568 121.577 72.3728ZM128.489 72.3728C128.489 74.9648 129.119 77.0528 130.379 78.6368C131.639 80.2208 133.295 81.0128 135.347 81.0128C137.291 81.0128 138.929 80.2928 140.261 78.8528C141.593 77.3768 142.259 75.1988 142.259 72.3188C142.259 70.0148 141.665 68.0348 140.477 66.3788C139.289 64.6868 137.597 63.8408 135.401 63.8408C133.457 63.8408 131.819 64.6148 130.487 66.1628C129.155 67.6748 128.489 69.7448 128.489 72.3728ZM154.639 72.3728C154.639 68.1248 155.935 64.6688 158.527 62.0048C161.155 59.3048 164.539 57.9548 168.679 57.9548C172.495 57.9548 175.483 59.1968 177.643 61.6808C179.803 64.1288 180.883 67.2428 180.883 71.0228C180.883 71.6348 180.811 72.5168 180.667 73.6688H161.713C161.929 75.9728 162.811 77.7728 164.359 79.0688C165.907 80.3288 167.779 80.9588 169.975 80.9588C172.711 80.9588 175.339 79.9508 177.859 77.9348L180.559 82.8488C179.191 84.0728 177.499 85.0448 175.483 85.7648C173.503 86.4488 171.505 86.7908 169.489 86.7908C165.061 86.7908 161.479 85.4048 158.743 82.6328C156.007 79.8248 154.639 76.4048 154.639 72.3728ZM161.875 68.9708H174.025C173.989 67.1708 173.449 65.7488 172.405 64.7048C171.397 63.6608 170.101 63.1388 168.517 63.1388C166.789 63.1388 165.331 63.6788 164.143 64.7588C162.955 65.8028 162.199 67.2068 161.875 68.9708ZM187.132 86.1428V47.8028H194.098V64.0568H211.648V47.8028H218.56V86.1428H211.648V70.0508H194.098V86.1428H187.132ZM224.67 72.3728C224.67 68.1248 225.966 64.6688 228.558 62.0048C231.186 59.3048 234.57 57.9548 238.71 57.9548C242.526 57.9548 245.514 59.1968 247.674 61.6808C249.834 64.1288 250.914 67.2428 250.914 71.0228C250.914 71.6348 250.842 72.5168 250.698 73.6688H231.744C231.96 75.9728 232.842 77.7728 234.39 79.0688C235.938 80.3288 237.81 80.9588 240.006 80.9588C242.742 80.9588 245.37 79.9508 247.89 77.9348L250.59 82.8488C249.222 84.0728 247.53 85.0448 245.514 85.7648C243.534 86.4488 241.536 86.7908 239.52 86.7908C235.092 86.7908 231.51 85.4048 228.774 82.6328C226.038 79.8248 224.67 76.4048 224.67 72.3728ZM231.906 68.9708H244.056C244.02 67.1708 243.48 65.7488 242.436 64.7048C241.428 63.6608 240.132 63.1388 238.548 63.1388C236.82 63.1388 235.362 63.6788 234.174 64.7588C232.986 65.8028 232.23 67.2068 231.906 68.9708ZM256.613 77.5568V47.8028H263.417V76.5308C263.417 77.9708 263.633 78.9608 264.065 79.5008C264.533 80.0408 265.253 80.3108 266.225 80.3108C266.657 80.3108 266.999 80.2928 267.251 80.2568V86.2508C266.279 86.3588 265.559 86.4128 265.091 86.4128C263.975 86.4128 262.985 86.3228 262.121 86.1428C261.257 85.9268 260.375 85.5488 259.475 85.0088C258.575 84.4328 257.873 83.5148 257.369 82.2548C256.865 80.9948 256.613 79.4288 256.613 77.5568ZM272.223 96.9428V58.6028H278.487V60.6548L278.379 62.5988H278.487C279.387 61.1228 280.611 59.9888 282.159 59.1968C283.743 58.3688 285.471 57.9548 287.343 57.9548C291.051 57.9548 294.003 59.2868 296.199 61.9508C298.431 64.6148 299.547 68.0888 299.547 72.3728C299.547 76.6928 298.359 80.1848 295.983 82.8488C293.643 85.4768 290.637 86.7908 286.965 86.7908C283.689 86.7908 281.043 85.4948 279.027 82.9028H278.919C279.027 83.5508 279.081 84.3428 279.081 85.2788V96.9428H272.223ZM278.865 72.5348C278.865 74.8388 279.477 76.8368 280.701 78.5288C281.925 80.1848 283.599 81.0128 285.723 81.0128C287.703 81.0128 289.341 80.2568 290.637 78.7448C291.969 77.1968 292.635 75.1088 292.635 72.4808C292.635 69.8888 292.005 67.8008 290.745 66.2168C289.485 64.6328 287.847 63.8408 285.831 63.8408C283.851 63.8408 282.195 64.5788 280.863 66.0548C279.531 67.4948 278.865 69.6548 278.865 72.5348ZM44.04 129.143V101.023H53.64C55.88 101.023 57.7067 101.663 59.12 102.943C60.5333 104.223 61.24 105.943 61.24 108.103C61.24 110.983 60.0533 113.023 57.68 114.223V114.303C59.12 114.703 60.2667 115.543 61.12 116.823C61.9733 118.103 62.4 119.583 62.4 121.263C62.4 123.689 61.6 125.609 60 127.023C58.4 128.436 56.3867 129.143 53.96 129.143H44.04ZM46.8 113.223H53.64C55.0533 113.223 56.2 112.769 57.08 111.863C57.96 110.956 58.4 109.769 58.4 108.303C58.4 106.863 57.96 105.703 57.08 104.823C56.2267 103.943 55.0533 103.503 53.56 103.503H46.8V113.223ZM46.8 126.663H54C55.7067 126.663 57.0533 126.169 58.04 125.183C59.0267 124.196 59.52 122.863 59.52 121.183C59.52 119.503 59 118.156 57.96 117.143C56.9467 116.129 55.6133 115.623 53.96 115.623H46.8V126.663ZM67.4531 121.823V109.023H70.2131V121.103C70.2131 122.996 70.4931 124.463 71.0531 125.503C71.6398 126.543 72.8131 127.063 74.5731 127.063C76.7865 127.063 78.5731 126.236 79.9331 124.583C81.3198 122.929 82.0131 120.956 82.0131 118.663V109.023H84.7331V129.143H82.0531V125.983L82.2131 124.383H82.1331C81.6531 125.636 80.7065 126.823 79.2931 127.943C77.9065 129.063 76.2131 129.623 74.2131 129.623C71.8665 129.623 70.1465 128.983 69.0531 127.703C67.9865 126.423 67.4531 124.463 67.4531 121.823ZM89.7688 134.183C90.5154 134.796 91.3154 135.103 92.1688 135.103C93.7688 135.103 95.0488 134.009 96.0088 131.823L97.2088 128.943L88.8488 109.023H91.8488L97.7288 123.703L98.4888 125.823H98.5688C98.7554 125.076 98.9821 124.369 99.2488 123.703L105.049 109.023H107.969L98.0488 133.343C97.5154 134.649 96.7421 135.676 95.7288 136.423C94.7421 137.169 93.5954 137.543 92.2888 137.543C91.6754 137.543 91.0621 137.436 90.4488 137.223C89.8621 137.036 89.4354 136.849 89.1688 136.663L88.7288 136.343L89.7688 134.183ZM112.143 104.423V101.023H115.103V104.423H112.143ZM112.263 129.143V109.023H114.983V129.143H112.263ZM121.482 129.143V109.023H124.162V112.183L124.002 113.783H124.082C124.589 112.556 125.536 111.383 126.922 110.263C128.336 109.116 130.096 108.543 132.202 108.543C134.629 108.543 136.362 109.196 137.402 110.503C138.442 111.809 138.962 113.756 138.962 116.343V129.143H136.242V117.063C136.242 115.169 135.949 113.703 135.362 112.663C134.776 111.623 133.602 111.103 131.842 111.103C129.682 111.103 127.869 111.889 126.402 113.463C124.936 115.036 124.202 116.983 124.202 119.303V129.143H121.482ZM146.792 133.703C148.552 134.609 150.379 135.063 152.272 135.063C154.379 135.063 156.072 134.543 157.352 133.503C158.632 132.489 159.272 130.916 159.272 128.783V126.783L159.432 125.303H159.352C158.046 127.783 155.912 129.023 152.952 129.023C150.259 129.023 148.086 128.063 146.432 126.143C144.806 124.223 143.992 121.743 143.992 118.703C143.992 115.663 144.779 113.209 146.352 111.343C147.926 109.476 150.046 108.543 152.712 108.543C154.152 108.543 155.472 108.836 156.672 109.423C157.899 110.009 158.806 110.889 159.392 112.063H159.472C159.419 111.903 159.392 111.676 159.392 111.383V109.023H162.032V128.663C162.032 131.649 161.099 133.876 159.232 135.343C157.392 136.809 155.099 137.543 152.352 137.543C150.032 137.543 147.846 136.996 145.792 135.903L146.792 133.703ZM148.392 113.023C147.299 114.383 146.752 116.263 146.752 118.663C146.752 121.063 147.352 122.983 148.552 124.423C149.752 125.863 151.352 126.583 153.352 126.583C155.139 126.583 156.579 125.969 157.672 124.743C158.792 123.489 159.352 121.476 159.352 118.703C159.352 113.556 157.232 110.983 152.992 110.983C151.046 110.983 149.512 111.663 148.392 113.023ZM177.473 115.063C177.473 110.983 178.833 107.543 181.553 104.743C184.273 101.943 187.647 100.543 191.673 100.543C195.647 100.543 198.98 101.636 201.673 103.823L200.153 105.943C199.167 105.116 197.9 104.449 196.353 103.943C194.807 103.409 193.287 103.143 191.793 103.143C188.433 103.143 185.687 104.276 183.553 106.543C181.42 108.809 180.353 111.636 180.353 115.023C180.353 118.489 181.407 121.356 183.513 123.623C185.647 125.889 188.327 127.023 191.553 127.023C193.207 127.023 194.807 126.663 196.353 125.943C197.927 125.196 199.273 124.196 200.393 122.943V118.183H195.593V115.703H202.993V129.143H200.473V127.023L200.513 125.823H200.433C199.393 126.969 198.06 127.889 196.433 128.583C194.807 129.276 193.087 129.623 191.273 129.623C187.38 129.623 184.1 128.236 181.433 125.463C178.793 122.689 177.473 119.223 177.473 115.063ZM208.826 129.143V109.023H211.506V112.743L211.346 114.343H211.426C211.959 112.743 212.786 111.423 213.906 110.383C215.053 109.343 216.373 108.823 217.866 108.823C218.266 108.823 218.626 108.863 218.946 108.943V111.623C218.786 111.569 218.453 111.543 217.946 111.543C216.533 111.543 215.319 112.036 214.306 113.023C213.293 114.009 212.573 115.169 212.146 116.503C211.746 117.809 211.546 119.183 211.546 120.623V129.143H208.826ZM220.903 118.983C220.903 116.023 221.93 113.543 223.983 111.543C226.037 109.543 228.543 108.543 231.503 108.543C234.463 108.543 236.97 109.543 239.023 111.543C241.103 113.543 242.143 116.023 242.143 118.983C242.143 121.996 241.103 124.529 239.023 126.583C236.97 128.609 234.463 129.623 231.503 129.623C228.543 129.623 226.037 128.609 223.983 126.583C221.93 124.529 220.903 121.996 220.903 118.983ZM223.703 118.983C223.703 121.329 224.45 123.276 225.943 124.823C227.463 126.369 229.317 127.143 231.503 127.143C233.69 127.143 235.543 126.369 237.063 124.823C238.583 123.276 239.343 121.329 239.343 118.983C239.343 116.716 238.583 114.823 237.063 113.303C235.543 111.756 233.69 110.983 231.503 110.983C229.317 110.983 227.463 111.756 225.943 113.303C224.45 114.823 223.703 116.716 223.703 118.983ZM246.984 121.823V109.023H249.744V121.103C249.744 122.996 250.024 124.463 250.584 125.503C251.171 126.543 252.344 127.063 254.104 127.063C256.318 127.063 258.104 126.236 259.464 124.583C260.851 122.929 261.544 120.956 261.544 118.663V109.023H264.264V129.143H261.584V125.983L261.744 124.383H261.664C261.184 125.636 260.238 126.823 258.824 127.943C257.438 129.063 255.744 129.623 253.744 129.623C251.398 129.623 249.678 128.983 248.584 127.703C247.518 126.423 246.984 124.463 246.984 121.823ZM270.74 137.143V109.023H273.34V111.143L273.22 112.703H273.3C273.913 111.396 274.833 110.383 276.06 109.663C277.313 108.916 278.727 108.543 280.3 108.543C282.993 108.543 285.127 109.516 286.7 111.463C288.273 113.383 289.06 115.916 289.06 119.063C289.06 122.236 288.22 124.796 286.54 126.743C284.86 128.663 282.7 129.623 280.06 129.623C278.647 129.623 277.353 129.276 276.18 128.583C275.007 127.863 274.087 126.876 273.42 125.623H273.34C273.42 126.103 273.46 126.689 273.46 127.383V137.143H270.74ZM273.38 119.143C273.38 121.303 273.953 123.183 275.1 124.783C276.273 126.383 277.833 127.183 279.78 127.183C281.62 127.183 283.167 126.463 284.42 125.023C285.673 123.556 286.3 121.583 286.3 119.103C286.3 116.676 285.7 114.729 284.5 113.263C283.327 111.769 281.793 111.023 279.9 111.023C278.06 111.023 276.513 111.703 275.26 113.063C274.007 114.423 273.38 116.449 273.38 119.143Z" fill="white"/>
<g clip-path="url(#clip1)">
<path d="M343.611 227.249L359.718 177.372L351.89 122.187L351.909 122.109L357.468 90.9722L346.958 103.251L333.864 141.731L332.944 141.418L346.097 102.761L346.155 102.683L359.053 87.6039L352.888 122.207L360.717 177.45L344.335 228.228L343.611 227.249Z" fill="white"/>
<path d="M410.839 125.144L393.499 113.904L384.809 94.1251L378.84 74.2681L379.035 74.0527C379.153 73.9352 390.152 62.6163 387.529 54.5677C386.414 51.1211 383.869 48.9474 380.562 48.6145C377.137 48.262 373.673 50.0637 371.97 53.099C367.821 60.4426 372.342 73.7198 372.4 73.8568L372.537 74.2289L362.027 80.7108L361.519 79.8688L371.363 73.7981C370.619 71.5069 367.116 59.7376 371.128 52.629C373.027 49.2804 376.863 47.2829 380.66 47.655C384.359 48.0271 387.197 50.4357 388.449 54.274C391.072 62.3421 381.501 72.8777 379.916 74.5422L385.69 93.8314L394.223 113.258L411.329 124.341L410.839 125.144Z" fill="white"/>
<path d="M403.461 228.444L378.526 143.396L379.701 98.6683L380.679 98.6879L379.505 143.259L404.185 227.426L453.095 226.114C452.331 219.475 444.679 153.54 444.679 143.905C444.679 133.33 450.394 95.0455 450.55 93.9097C450.687 91.6577 450.668 85.5478 449.102 83.8637C448.867 83.6091 448.593 83.4721 448.3 83.4721C443.289 83.4721 439.786 92.4606 439.747 92.5585L439.727 92.5781C439.688 92.6564 435.989 100.783 430.665 108.793C423.463 119.661 416.867 125.164 411.094 125.164V124.185C424.031 124.185 438.455 92.9697 438.827 92.1668C439.042 91.5989 442.663 82.4733 448.28 82.4733C448.848 82.4733 449.357 82.7083 449.787 83.1587C451.979 85.4891 451.529 93.5964 451.509 93.9489V93.9881C451.451 94.3797 445.638 133.232 445.638 143.846C445.638 153.872 454.034 225.742 454.112 226.466L454.171 226.995L453.643 227.014L403.461 228.444Z" fill="white"/>
<path d="M569.391 227.524L486.896 225.683L486.778 225.409L463.84 174.356V174.239C463.86 173.847 466.6 135.915 468.146 124.087C468.948 117.879 471.473 116.704 474.37 115.314C477.266 113.943 480.555 112.396 483.432 105.346C484.86 101.88 484.312 95.1826 481.983 86.9186C480.007 79.9471 477.032 73.2106 474.918 70.8802C472.902 68.6478 470.182 67.8057 468.009 67.1203C465.563 66.3566 463.449 65.6908 463.449 63.4387C463.449 61.4609 466.287 56.7218 469.281 51.7086C472.06 47.0675 475.192 41.7997 475.192 39.9393C475.192 38.4118 472.628 36.199 469.34 35.6311C467.167 35.259 461.824 35.2198 459.123 42.8376C457.969 46.0883 458.047 51.219 458.106 55.7427C458.164 60.5013 458.164 63.2429 457.245 64.1633L456.56 63.4779C457.245 62.7925 457.186 59.2284 457.127 55.7623C457.068 51.1603 456.99 45.9317 458.204 42.5047C461.159 34.1624 467.089 34.2407 469.516 34.6519C473.059 35.259 476.19 37.7264 476.19 39.9197C476.19 42.0347 473.254 46.9696 470.142 52.1786C467.344 56.8589 464.447 61.7155 464.447 63.4192C464.447 64.8879 465.778 65.3775 468.322 66.1804C470.612 66.9049 473.489 67.7861 475.681 70.2144C477.912 72.6819 480.907 79.438 482.962 86.6444C484.097 90.6394 486.524 100.509 484.391 105.718C481.357 113.101 477.736 114.824 474.84 116.195C471.982 117.546 469.908 118.525 469.164 124.204C467.657 135.68 465.034 171.791 464.878 174.18L487.581 224.723L567.981 226.505C565.496 220.356 547.49 174.904 544.241 167.345C543.654 165.975 546.042 162.939 551.072 156.732C558.02 148.154 568.53 135.19 568.569 126.026H569.547C569.508 135.523 559.292 148.135 551.835 157.339C549.76 159.904 547.96 162.117 546.727 163.86C545.043 166.249 545.083 166.836 545.141 166.954C548.605 175.042 568.921 226.329 569.117 226.838L569.391 227.524Z" fill="white"/>
<path d="M568.588 128.18C567.512 123.597 574.988 115.764 575.536 115.216C576.201 114.374 595.812 88.9748 592.074 79.0854C591.232 76.8726 589.06 76.2851 586.77 75.6584C584.343 75.0122 581.818 74.3268 580.918 71.6244C579.9 68.589 579.196 62.7925 578.687 58.5626C578.491 56.9372 578.315 55.5468 578.159 54.5481C576.671 44.9917 572.267 40.468 568.784 40.3309C565.848 40.2134 563.421 42.955 562.286 47.6941C561.679 50.2203 563.069 58.0926 566.67 62.6554C568.451 64.9074 570.506 66.0432 572.776 66.0432C573.677 66.0432 574.459 67.1203 575.223 69.4115C575.732 70.939 576.025 72.4468 576.045 72.5056L576.162 73.0931H575.555C575.438 73.0931 567.746 73.1127 563.225 75.6193C562.208 76.1872 559.918 80.2408 556.042 101.018C553.811 112.925 552.148 124.674 552.128 124.792L551.698 127.827L542.558 76.5397L543.517 76.3634L551.6 121.678C552.246 117.409 553.518 109.165 555.084 100.842C556.395 93.8313 557.628 88.1327 558.783 83.9028C560.759 76.5984 562.012 75.1884 562.775 74.7576C566.827 72.5252 573.031 72.1727 574.988 72.1335C574.362 69.3919 573.363 67.0224 572.796 67.0224C570.212 67.0224 567.903 65.7495 565.926 63.2625C562.012 58.2884 560.72 50.1028 561.366 47.4591C562.619 42.2501 565.417 39.2147 568.862 39.3518C572.855 39.5085 577.591 44.2279 579.157 54.3914C579.313 55.4097 579.489 56.8001 579.685 58.4451C580.194 62.6358 580.899 68.3736 581.877 71.311C582.621 73.5239 584.774 74.1114 587.064 74.7185C589.51 75.3647 592.015 76.0501 593.033 78.7329C597.006 89.2489 577.18 114.746 576.319 115.823L576.28 115.862C576.201 115.94 568.608 123.813 569.567 127.945L568.588 128.18Z" fill="white"/>
<path d="M633.526 227.093H587.768L587.748 226.623C587.709 225.957 584.029 160.57 584.029 140.536C584.029 124.792 584.793 120.072 586.026 112.22C586.671 108.186 587.474 103.153 588.355 95.3L589.333 95.4175C588.453 103.309 587.65 108.342 587.004 112.376C585.771 120.17 585.008 124.87 585.008 140.536C585.008 159.649 588.374 220.18 588.707 226.114H632.587C632.704 220.552 633.741 168.971 633.741 162.724C633.741 160.002 632.097 154.558 630.199 148.272C627.596 139.655 624.347 128.904 624.347 121.404C624.347 116.41 624.19 112.318 624.034 108.362C623.897 104.954 623.76 101.723 623.76 98.3158C623.76 88.3481 622.253 78.0279 619.748 78.0279C617.36 78.0279 611.606 85.6261 608.318 90.7372L608.024 91.1876L591.427 77.93L592.034 77.1663L607.77 89.7581C609.453 87.2123 616.323 77.0684 619.728 77.0684C624.582 77.0684 624.719 96.1617 624.719 98.3354C624.719 101.704 624.856 104.935 624.993 108.342C625.149 112.318 625.306 116.41 625.306 121.424C625.306 128.787 628.516 139.44 631.119 147.997C633.037 154.382 634.701 159.884 634.701 162.743C634.701 169.323 633.546 226.055 633.526 226.642V227.093Z" fill="white"/>
<path d="M678.621 125.164L654.058 112.083L654.038 111.808L652.903 87.369C652.766 86.5857 649.948 71.6439 644.213 69.3527C641.493 68.2757 639.634 67.1007 638.636 61.1279C638.107 57.9555 640.045 54.5873 641.924 51.3365C643.47 48.6537 645.075 45.8729 645.075 43.4446C645.075 40.2918 644.546 38.4902 643.352 37.6285C642.119 36.7277 640.084 36.7669 637.109 37.7264C633.664 38.8426 634.134 44.5021 634.643 51.0428C635.093 56.663 635.602 63.0275 633.469 67.3553L632.588 66.9245C634.604 62.8316 634.095 56.6239 633.664 51.1211C633.097 44.1496 632.627 38.1377 636.796 36.7864C640.084 35.729 642.413 35.729 643.92 36.8256C645.388 37.9027 646.053 39.9393 646.053 43.4446C646.053 46.1275 644.39 49.0257 642.765 51.8261C640.965 54.9398 639.105 58.1513 639.595 60.9713C640.573 66.8657 642.432 67.5903 644.585 68.4519C650.946 70.9781 653.765 86.5661 653.882 87.2319V87.2906L654.998 111.475L679.051 124.283L678.621 125.164Z" fill="white"/>
<path d="M702.714 227.093H641.239L641.395 226.486C641.513 225.996 653.725 176.686 654.097 153.304C654.293 141.555 647.56 122.364 641.611 105.424C635.367 87.6432 629.985 72.3098 632.627 66.9245L633.508 67.3553C631.061 72.3685 636.639 88.2698 642.55 105.091C648.519 122.109 655.291 141.379 655.095 153.304C654.724 175.374 643.92 220.337 642.511 226.094H701.52L689.111 162.273L689.17 162.136L706.941 116.391V80.6129L700.815 99.3341L700.756 99.4125L679.227 125.066L678.484 124.439L699.954 98.8641L707.92 74.5031V116.626L707.881 116.704L690.129 162.391L702.714 227.093Z" fill="white"/>
<path d="M737.668 130.02H736.689V104.974C735.574 93.2046 732.618 70.136 729.389 66.9048C727.412 64.9269 725.083 64.2024 723.224 63.6149C721.208 62.9882 719.466 62.4399 719.466 60.5012C719.466 59.5808 719.995 57.9946 720.641 55.9972C722.343 50.7881 724.927 42.9354 721.032 39.0188C718.997 36.9822 717.118 36.2381 715.611 36.8647C713.673 37.6676 712.401 40.7813 712.401 44.8153C712.401 48.1248 713.634 50.749 714.73 53.0597C715.983 55.723 717.079 58.0338 716.08 60.6775C715.435 62.4008 714.397 63.7911 713.321 65.2403C711.305 67.9427 709.015 70.9976 707.88 77.597L706.921 77.4404C708.076 70.606 710.542 67.2965 712.538 64.6528C713.634 63.2036 714.573 61.9308 715.161 60.3445C716.002 58.0729 715.043 56.0559 713.83 53.4906C712.695 51.0819 711.403 48.3598 711.403 44.8349C711.403 40.3505 712.851 36.9626 715.2 35.9835C716.531 35.4352 718.723 35.396 721.678 38.353C726.003 42.6808 723.302 50.886 721.521 56.3301C720.915 58.1709 720.386 59.7571 720.386 60.5208C720.386 61.6958 721.384 62.0483 723.459 62.6945C725.436 63.3016 727.882 64.0653 730.035 66.2194C734.321 70.5081 737.472 103.505 737.609 104.896V104.935V130.02H737.668Z" fill="white"/>
<path d="M773.7 226.329L746.691 225.291L746.554 225.076L710.033 169.695L710.072 169.499L727.295 79.8099L728.255 79.9862L711.071 169.48L747.22 224.331L772.898 225.33L779.924 190.512L776.753 114.178C775.422 114.55 772.271 115.216 770.099 113.884C768.905 113.16 768.2 111.965 767.985 110.34C767.613 107.539 768.024 95.1041 768.592 84.0398C769.12 73.6805 770.001 60.56 770.745 57.6617C772.036 52.6681 782.312 47.7528 782.742 47.5569L783.153 48.4382C783.055 48.4773 772.859 53.3535 771.684 57.9163C771.077 60.2466 770.255 70.5081 769.551 84.0986C768.885 97.1408 768.631 107.892 768.944 110.222C769.12 111.554 769.668 112.494 770.588 113.062C772.956 114.511 776.988 113.101 777.027 113.081L777.654 112.866L780.883 190.629L780.863 190.688L773.7 226.329Z" fill="white"/>
<path d="M800.846 121.717L800.102 121.091C800.141 121.051 803.351 117.233 805.876 111.436C808.185 106.11 810.378 97.9829 807.677 89.4252C805.504 82.5712 803.273 76.618 801.335 71.3502C798.517 63.7716 796.482 58.308 796.482 55.1943C796.482 52.3352 792.626 51.4736 790.082 50.8861C788.535 50.5336 787.694 50.3378 787.518 49.7503C787.479 49.5936 787.439 49.2803 787.772 48.967C789.24 47.4983 796.501 36.9823 796.501 30.5199C796.501 28.9925 795.581 27.5433 794.094 26.7209C792.45 25.8005 790.532 25.8788 788.868 26.9363C786.5 28.4246 782.664 33.1245 783.466 47.9291L782.488 47.9878C781.646 32.674 785.795 27.7 788.34 26.1138C790.297 24.8997 792.606 24.8017 794.564 25.8788C796.364 26.8775 797.48 28.6596 797.48 30.5395C797.48 37.0606 790.453 47.4983 788.633 49.5153C789.005 49.6524 789.71 49.8286 790.316 49.9657C792.998 50.5728 797.48 51.5911 797.48 55.2139C797.48 58.1513 799.496 63.5562 802.255 71.0369C804.212 76.3046 806.424 82.2774 808.616 89.151C811.434 98.0025 809.164 106.384 806.776 111.867C804.193 117.781 800.983 121.561 800.846 121.717Z" fill="white"/>
<path d="M796.501 227.543L799.985 121.404L800.963 121.443L797.499 226.544L833.55 225.369L823.647 160.178L823.666 160.1C823.764 159.473 833.707 97.2779 833.707 91.7555C833.707 89.8756 833.198 88.6027 832.415 88.4852C831.495 88.3481 829.616 89.856 828.266 94.5167C826.211 101.567 823.706 105.013 820.613 105.052C820.594 105.052 820.594 105.052 820.574 105.052C817.071 105.052 813.156 100.431 808.949 91.2856C805.856 84.5686 803.703 77.7538 803.684 77.695L804.623 77.4013C804.643 77.4601 806.776 84.2357 809.849 90.8939C813.841 99.5495 817.56 104.112 820.613 104.073C823.177 104.054 825.447 100.744 827.346 94.2426C828.618 89.8952 830.673 87.2515 832.572 87.5256C833.902 87.7215 834.705 89.3077 834.705 91.7751C834.705 97.3171 825.213 156.712 824.665 160.198L834.705 226.309L834.157 226.329L796.501 227.543Z" fill="white"/>
<path d="M898 227.093H859.855V226.603C859.855 226.035 858.817 169.793 853.396 160.609C852.319 158.788 853.885 149.212 854.923 143.65C856.214 136.698 858.074 128.63 858.974 127.357C861.303 124.087 861.636 117.487 861.89 112.18C862.027 109.341 862.145 106.893 862.536 105.209C863.632 100.352 861.048 80.5933 859.248 74.8556C858.445 72.3098 855.06 70.7627 851.771 69.2744C847.877 67.512 843.845 65.6712 844.158 62.0092C844.373 59.4438 845.528 56.6239 846.644 53.9215C848.327 49.8287 849.912 45.9513 848.483 43.0922C846.605 39.3518 841.594 34.1624 839.206 34.1624C839.148 34.1624 838.972 34.2603 838.717 34.7107C837.739 36.434 836.858 41.3884 837.034 47.5375C837.151 51.552 837.836 59.0913 841.183 64.6333L840.342 65.1425C834.509 55.4685 835.605 38.2552 837.876 34.2407C838.267 33.5357 838.717 33.1832 839.226 33.1832C842.22 33.1832 847.505 38.921 849.384 42.6613C851.008 45.9317 849.266 50.1812 847.583 54.3131C846.487 56.9568 845.371 59.6984 845.156 62.1267C844.902 65.1033 848.444 66.7287 852.202 68.4324C855.686 70.0186 859.287 71.644 860.207 74.601C862.086 80.5737 864.65 100.372 863.515 105.464C863.162 107.069 863.025 109.596 862.908 112.278C862.634 117.703 862.301 124.479 859.815 127.964C859.209 128.806 857.506 135.406 855.921 143.866C853.924 154.558 853.787 159.316 854.277 160.139C859.62 169.186 860.755 220.219 860.872 226.133H898.059V227.093H898Z" fill="white"/>
<path d="M343.024 176.824L300.455 162.176L310.084 134.152L352.653 148.8L343.024 176.824ZM301.708 161.568L342.417 175.59L351.42 149.427L310.711 135.406L301.708 161.568Z" fill="white"/>
<path d="M514.844 89.9343L502.592 63.1841L543.516 44.4042L555.768 71.1544L514.844 89.9343ZM503.884 63.6541L515.333 88.6223L554.476 70.6648L543.027 45.6966L503.884 63.6541Z" fill="white"/>
<path d="M753.893 145.354H727.295V128.434H753.893V145.354ZM728.274 144.375H752.914V129.413H728.274V144.375Z" fill="white"/>
</g>
</g>
<defs>
<linearGradient id="paint0_linear" x1="-1.8692e-05" y1="176" x2="97.4517" y2="-171.282" gradientUnits="userSpaceOnUse">
<stop stop-color="#95C22A"/>
<stop offset="1" stop-color="#C5E775"/>
</linearGradient>
<clipPath id="clip0">
<rect width="896" height="176" rx="16" fill="white"/>
</clipPath>
<clipPath id="clip1">
<rect width="774" height="154" fill="white" transform="translate(122)"/>
</clipPath>
</defs>
</svg>
